<svg width="404" height="411" viewBox="0 0 404 411" fill="none" xmlns="http://www.w3.org/2000/svg">
<g clip-path="url(#clip0_1_3)">
<path d="M404 205.5C404.07 254.009 387.204 300.967 356.408 338.001C355.289 339.352 354.15 340.682 352.99 342.005C339.336 357.627 323.43 371.051 305.817 381.818C301.777 384.285 297.648 386.61 293.431 388.793C293.005 389.014 292.571 389.234 292.145 389.447C291.635 389.711 291.118 389.967 290.6 390.223C279.929 395.536 268.814 399.872 257.386 403.178C256.197 403.52 255.007 403.851 253.814 404.174C238.781 408.22 223.339 410.485 207.794 410.922C206.984 410.943 206.187 410.957 205.418 410.972C205.145 410.979 204.88 410.986 204.614 410.986C203.74 410.993 202.874 411 202 411C185.619 411.012 169.298 408.999 153.394 405.006C151.801 404.607 150.214 404.188 148.634 403.747C140.313 401.436 132.149 398.579 124.192 395.193C119.998 393.415 115.879 391.498 111.834 389.44C110.918 388.971 110.003 388.502 109.101 388.018C108.717 387.826 108.339 387.62 107.962 387.421C86.4045 375.846 67.0725 360.416 50.8914 341.87C49.7731 340.597 48.6757 339.303 47.5923 338.001C29.7637 316.497 16.4647 291.497 8.51898 264.551C0.573289 237.605 -1.84991 209.287 1.39948 181.349C4.64886 153.412 13.5016 126.451 27.4095 102.135C41.3174 77.8202 59.9842 56.6686 82.2538 39.9907C83.4001 39.1303 84.5534 38.2771 85.7207 37.4451C85.9513 37.2816 86.182 37.118 86.4126 36.9545C106.922 22.3391 129.943 11.763 154.282 5.77391C155.666 5.42549 157.05 5.0984 158.448 4.79264C184.811 -1.07393 212.056 -1.55974 238.605 3.36338C239.996 3.62648 241.386 3.89669 242.77 4.18823C266.892 9.22156 289.898 18.7255 310.64 32.2258C311.101 32.5245 311.562 32.8231 312.024 33.136C312.953 33.7475 313.883 34.3733 314.798 35.0061C342.275 53.7985 364.784 79.1806 380.34 108.914C395.897 138.647 404.022 171.817 404 205.5V205.5Z" fill="url(#paint0_linear_1_3)"/>
<path d="M150.976 311.813L86.4127 317.643L85.7207 317.707V37.4451C85.9513 37.2815 86.182 37.118 86.4127 36.9544C99.8683 27.3796 114.424 19.5137 129.755 13.5317L133.054 59.8225L133.355 64.0605L136.619 109.967L137.626 124.089L150.857 310.177L150.976 311.813Z" fill="#227570"/>
<path d="M310.64 32.2258C311.101 32.5245 311.562 32.8231 312.024 33.136V317.707L310.64 317.579L246.776 311.813L246.894 310.177L260.126 124.089L261.132 109.967L264.396 64.0605L264.697 59.8226L268.157 11.2776C283.077 16.5391 297.336 23.5703 310.64 32.2258V32.2258Z" fill="#378274"/>
<path d="M310.64 32.2258V321.59C310.64 327.143 306.879 331.658 302.252 331.658H94.8002C90.9699 331.658 87.7197 328.558 86.7342 324.327C86.519 323.431 86.4111 322.512 86.4127 321.59V36.9544C86.182 37.118 85.9514 37.2816 85.7207 37.4451C84.5534 38.277 83.4001 39.1303 82.2538 39.9907V321.59C82.1919 325.808 83.7403 329.886 86.5734 332.967C88.059 334.55 89.9381 335.695 92.0114 336.28C92.9203 336.532 93.8582 336.659 94.8002 336.657H302.252C303.196 336.658 304.137 336.532 305.048 336.28C310.626 334.752 314.799 328.75 314.799 321.59V35.0061C313.883 34.3732 312.953 33.7475 312.024 33.136C311.562 32.8231 311.101 32.5245 310.64 32.2258Z" fill="#CCCCCC"/>
<path d="M312.721 59.8254H84.3334V64.0627H312.721V59.8254Z" fill="#CCCCCC"/>
<path d="M154.282 5.77391C155.666 5.42548 157.05 5.09839 158.448 4.79263V119.851H154.282V5.77391Z" fill="#CCCCCC"/>
<path d="M238.605 3.36337C239.996 3.62647 241.387 3.89668 242.77 4.18822V119.851H238.605V3.36337Z" fill="#CCCCCC"/>
<path d="M338.752 310.177H65.2411C60.2693 310.177 55.5012 312.186 51.9856 315.763C48.47 319.339 46.4949 324.19 46.4949 329.248C46.4949 334.306 48.47 339.157 51.9856 342.733C55.5012 346.31 60.2693 348.319 65.2411 348.319H338.752C341.414 348.32 344.046 347.742 346.471 346.625C348.896 345.508 351.059 343.877 352.815 341.841C353.61 340.921 354.317 339.926 354.926 338.869C355.397 338.059 355.806 337.212 356.149 336.337C357.291 333.444 357.718 330.31 357.392 327.21C357.066 324.11 355.998 321.139 354.28 318.556C352.563 315.974 350.25 313.86 347.542 312.399C344.835 310.938 341.817 310.175 338.752 310.177V310.177Z" fill="#B6D0D6"/>
<path d="M312.721 109.967H85.7217V124.091H312.721V109.967Z" fill="#CCCCCC"/>
<path d="M197.139 105.729H201.304C202.307 105.729 203.3 105.93 204.226 106.321C205.152 106.711 205.994 107.283 206.703 108.005C207.412 108.726 207.975 109.582 208.359 110.525C208.742 111.467 208.94 112.478 208.94 113.498V113.498H189.503C189.503 111.437 190.307 109.461 191.739 108.005C193.171 106.548 195.113 105.729 197.139 105.729H197.139Z" fill="#CCCCCC"/>
<path d="M356.408 338.001C350.336 345.321 343.768 352.199 336.753 358.587H67.2471C60.232 352.199 53.6644 345.321 47.5923 338.001H356.408Z" fill="#A1AA34"/>
<path d="M224.563 266.702H179.186C178.941 266.699 178.698 266.738 178.466 266.816C177.973 266.971 177.543 267.282 177.237 267.704C176.931 268.127 176.767 268.638 176.767 269.162V342.09H226.988V269.162C226.988 268.839 226.925 268.518 226.803 268.22C226.68 267.921 226.502 267.649 226.276 267.421C226.051 267.192 225.784 267.011 225.49 266.888C225.196 266.765 224.881 266.701 224.563 266.702ZM207.389 302.682C207.391 303.865 207.007 305.015 206.299 305.953C205.622 306.863 204.683 307.535 203.611 307.873C202.54 308.211 201.392 308.198 200.328 307.837C199.264 307.476 198.339 306.784 197.682 305.859C197.025 304.934 196.67 303.823 196.667 302.682V294.221C196.68 292.783 197.251 291.409 198.255 290.397C199.259 289.385 200.615 288.817 202.028 288.817C203.441 288.817 204.797 289.385 205.801 290.397C206.805 291.409 207.376 292.783 207.389 294.221V302.682Z" fill="#2F2E41"/>
<path d="M176.614 339.758V346.79C176.614 347.155 176.756 347.505 177.008 347.763C177.261 348.022 177.604 348.168 177.963 348.17H225.793C226.151 348.167 226.493 348.02 226.746 347.762C226.998 347.504 227.141 347.154 227.142 346.79V339.758H176.614Z" fill="#3F3D56"/>
<path d="M299.701 152.895H105.739C104.072 152.897 102.475 153.571 101.296 154.769C100.117 155.967 99.4523 157.592 99.4483 159.287V292.443C99.4496 294.14 100.113 295.767 101.292 296.967C102.472 298.167 104.071 298.841 105.739 298.843H299.701C301.369 298.841 302.968 298.167 304.148 296.967C305.327 295.767 305.99 294.14 305.992 292.443V159.287C305.988 157.592 305.323 155.967 304.144 154.769C302.965 153.571 301.367 152.897 299.701 152.895V152.895Z" fill="#3E3A3E"/>
<path d="M298.079 157.517H107.354C106.461 157.519 105.606 157.881 104.976 158.523C104.346 159.166 103.992 160.036 103.992 160.944V290.8C103.993 291.707 104.348 292.576 104.978 293.217C105.608 293.858 106.462 294.219 107.354 294.221H298.079C298.971 294.219 299.825 293.858 300.455 293.217C301.085 292.576 301.44 291.707 301.441 290.8V160.944C301.441 160.036 301.087 159.166 300.457 158.523C299.827 157.881 298.972 157.519 298.079 157.517V157.517Z" fill="#716BD8"/>
<path d="M262.977 348.056L261.216 339.544C261.143 339.197 260.986 338.874 260.759 338.605C260.532 338.335 260.242 338.128 259.916 338.001C259.68 337.907 259.429 337.859 259.175 337.859H149.221C148.968 337.859 148.716 337.907 148.48 338.001C148.154 338.128 147.865 338.335 147.638 338.605C147.411 338.874 147.253 339.197 147.18 339.544L145.419 348.056C145.355 348.365 145.36 348.684 145.433 348.991C145.506 349.298 145.645 349.584 145.841 349.83C146.036 350.075 146.283 350.273 146.563 350.409C146.843 350.545 147.15 350.615 147.46 350.616H260.929C261.241 350.617 261.548 350.547 261.829 350.41C262.11 350.274 262.357 350.074 262.551 349.826C262.747 349.582 262.887 349.296 262.961 348.99C263.034 348.684 263.04 348.365 262.977 348.056V348.056Z" fill="#2F2E41"/>
<path d="M153.181 339.392H150.369C150.18 339.392 150.027 339.547 150.027 339.739V341.178C150.027 341.37 150.18 341.525 150.369 341.525H153.181C153.369 341.525 153.522 341.37 153.522 341.178V339.739C153.522 339.547 153.369 339.392 153.181 339.392Z" fill="#3F3D56"/>
<path d="M160.171 339.392H157.358C157.17 339.392 157.017 339.547 157.017 339.739V341.178C157.017 341.37 157.17 341.525 157.358 341.525H160.171C160.359 341.525 160.512 341.37 160.512 341.178V339.739C160.512 339.547 160.359 339.392 160.171 339.392Z" fill="#3F3D56"/>
<path d="M167.16 339.392H164.348C164.159 339.392 164.007 339.547 164.007 339.739V341.178C164.007 341.37 164.159 341.525 164.348 341.525H167.16C167.349 341.525 167.501 341.37 167.501 341.178V339.739C167.501 339.547 167.349 339.392 167.16 339.392Z" fill="#3F3D56"/>
<path d="M174.15 339.392H171.337C171.149 339.392 170.996 339.547 170.996 339.739V341.178C170.996 341.37 171.149 341.525 171.337 341.525H174.15C174.338 341.525 174.491 341.37 174.491 341.178V339.739C174.491 339.547 174.338 339.392 174.15 339.392Z" fill="#3F3D56"/>
<path d="M181.139 339.392H178.327C178.139 339.392 177.986 339.547 177.986 339.739V341.178C177.986 341.37 178.139 341.525 178.327 341.525H181.139C181.328 341.525 181.481 341.37 181.481 341.178V339.739C181.481 339.547 181.328 339.392 181.139 339.392Z" fill="#3F3D56"/>
<path d="M188.129 339.392H185.317C185.128 339.392 184.975 339.547 184.975 339.739V341.178C184.975 341.37 185.128 341.525 185.317 341.525H188.129C188.317 341.525 188.47 341.37 188.47 341.178V339.739C188.47 339.547 188.317 339.392 188.129 339.392Z" fill="#3F3D56"/>
<path d="M195.119 339.392H192.306C192.118 339.392 191.965 339.547 191.965 339.739V341.178C191.965 341.37 192.118 341.525 192.306 341.525H195.119C195.307 341.525 195.46 341.37 195.46 341.178V339.739C195.46 339.547 195.307 339.392 195.119 339.392Z" fill="#3F3D56"/>
<path d="M202.108 339.392H199.296C199.107 339.392 198.955 339.547 198.955 339.739V341.178C198.955 341.37 199.107 341.525 199.296 341.525H202.108C202.297 341.525 202.449 341.37 202.449 341.178V339.739C202.449 339.547 202.297 339.392 202.108 339.392Z" fill="#3F3D56"/>
<path d="M209.098 339.392H206.285C206.097 339.392 205.944 339.547 205.944 339.739V341.178C205.944 341.37 206.097 341.525 206.285 341.525H209.098C209.286 341.525 209.439 341.37 209.439 341.178V339.739C209.439 339.547 209.286 339.392 209.098 339.392Z" fill="#3F3D56"/>
<path d="M216.087 339.392H213.275C213.087 339.392 212.934 339.547 212.934 339.739V341.178C212.934 341.37 213.087 341.525 213.275 341.525H216.087C216.276 341.525 216.429 341.37 216.429 341.178V339.739C216.429 339.547 216.276 339.392 216.087 339.392Z" fill="#3F3D56"/>
<path d="M223.077 339.392H220.265C220.076 339.392 219.923 339.547 219.923 339.739V341.178C219.923 341.37 220.076 341.525 220.265 341.525H223.077C223.266 341.525 223.418 341.37 223.418 341.178V339.739C223.418 339.547 223.266 339.392 223.077 339.392Z" fill="#3F3D56"/>
<path d="M230.067 339.392H227.254C227.066 339.392 226.913 339.547 226.913 339.739V341.178C226.913 341.37 227.066 341.525 227.254 341.525H230.067C230.255 341.525 230.408 341.37 230.408 341.178V339.739C230.408 339.547 230.255 339.392 230.067 339.392Z" fill="#3F3D56"/>
<path d="M237.056 339.392H234.244C234.055 339.392 233.903 339.547 233.903 339.739V341.178C233.903 341.37 234.055 341.525 234.244 341.525H237.056C237.245 341.525 237.398 341.37 237.398 341.178V339.739C237.398 339.547 237.245 339.392 237.056 339.392Z" fill="#3F3D56"/>
<path d="M244.046 339.392H241.234C241.045 339.392 240.892 339.547 240.892 339.739V341.178C240.892 341.37 241.045 341.525 241.234 341.525H244.046C244.234 341.525 244.387 341.37 244.387 341.178V339.739C244.387 339.547 244.234 339.392 244.046 339.392Z" fill="#3F3D56"/>
<path d="M251.036 339.392H248.223C248.035 339.392 247.882 339.547 247.882 339.739V341.178C247.882 341.37 248.035 341.525 248.223 341.525H251.036C251.224 341.525 251.377 341.37 251.377 341.178V339.739C251.377 339.547 251.224 339.392 251.036 339.392Z" fill="#3F3D56"/>
<path d="M258.025 339.392H255.213C255.024 339.392 254.872 339.547 254.872 339.739V341.178C254.872 341.37 255.024 341.525 255.213 341.525H258.025C258.214 341.525 258.366 341.37 258.366 341.178V339.739C258.366 339.547 258.214 339.392 258.025 339.392Z" fill="#3F3D56"/>
<path d="M153.098 342.947H150.286C150.097 342.947 149.945 343.103 149.945 343.294V344.733C149.945 344.925 150.097 345.081 150.286 345.081H153.098C153.287 345.081 153.44 344.925 153.44 344.733V343.294C153.44 343.103 153.287 342.947 153.098 342.947Z" fill="#3F3D56"/>
<path d="M160.088 342.947H157.276C157.087 342.947 156.934 343.103 156.934 343.294V344.733C156.934 344.925 157.087 345.081 157.276 345.081H160.088C160.276 345.081 160.429 344.925 160.429 344.733V343.294C160.429 343.103 160.276 342.947 160.088 342.947Z" fill="#3F3D56"/>
<path d="M167.078 342.947H164.265C164.077 342.947 163.924 343.103 163.924 343.294V344.733C163.924 344.925 164.077 345.081 164.265 345.081H167.078C167.266 345.081 167.419 344.925 167.419 344.733V343.294C167.419 343.103 167.266 342.947 167.078 342.947Z" fill="#3F3D56"/>
<path d="M174.067 342.947H171.255C171.066 342.947 170.914 343.103 170.914 343.294V344.733C170.914 344.925 171.066 345.081 171.255 345.081H174.067C174.256 345.081 174.408 344.925 174.408 344.733V343.294C174.408 343.103 174.256 342.947 174.067 342.947Z" fill="#3F3D56"/>
<path d="M181.057 342.947H178.244C178.056 342.947 177.903 343.103 177.903 343.294V344.733C177.903 344.925 178.056 345.081 178.244 345.081H181.057C181.245 345.081 181.398 344.925 181.398 344.733V343.294C181.398 343.103 181.245 342.947 181.057 342.947Z" fill="#3F3D56"/>
<path d="M188.046 342.947H185.234C185.046 342.947 184.893 343.103 184.893 343.294V344.733C184.893 344.925 185.046 345.081 185.234 345.081H188.046C188.235 345.081 188.388 344.925 188.388 344.733V343.294C188.388 343.103 188.235 342.947 188.046 342.947Z" fill="#3F3D56"/>
<path d="M195.036 342.947H192.224C192.035 342.947 191.882 343.103 191.882 343.294V344.733C191.882 344.925 192.035 345.081 192.224 345.081H195.036C195.224 345.081 195.377 344.925 195.377 344.733V343.294C195.377 343.103 195.224 342.947 195.036 342.947Z" fill="#3F3D56"/>
<path d="M202.026 342.947H199.213C199.025 342.947 198.872 343.103 198.872 343.294V344.733C198.872 344.925 199.025 345.081 199.213 345.081H202.026C202.214 345.081 202.367 344.925 202.367 344.733V343.294C202.367 343.103 202.214 342.947 202.026 342.947Z" fill="#3F3D56"/>
<path d="M209.015 342.947H206.203C206.014 342.947 205.862 343.103 205.862 343.294V344.733C205.862 344.925 206.014 345.081 206.203 345.081H209.015C209.204 345.081 209.356 344.925 209.356 344.733V343.294C209.356 343.103 209.204 342.947 209.015 342.947Z" fill="#3F3D56"/>
<path d="M216.005 342.947H213.192C213.004 342.947 212.851 343.103 212.851 343.294V344.733C212.851 344.925 213.004 345.081 213.192 345.081H216.005C216.193 345.081 216.346 344.925 216.346 344.733V343.294C216.346 343.103 216.193 342.947 216.005 342.947Z" fill="#3F3D56"/>
<path d="M222.994 342.947H220.182C219.994 342.947 219.841 343.103 219.841 343.294V344.733C219.841 344.925 219.994 345.081 220.182 345.081H222.994C223.183 345.081 223.336 344.925 223.336 344.733V343.294C223.336 343.103 223.183 342.947 222.994 342.947Z" fill="#3F3D56"/>
<path d="M229.984 342.947H227.172C226.983 342.947 226.831 343.103 226.831 343.294V344.733C226.831 344.925 226.983 345.081 227.172 345.081H229.984C230.173 345.081 230.325 344.925 230.325 344.733V343.294C230.325 343.103 230.173 342.947 229.984 342.947Z" fill="#3F3D56"/>
<path d="M236.974 342.947H234.161C233.973 342.947 233.82 343.103 233.82 343.294V344.733C233.82 344.925 233.973 345.081 234.161 345.081H236.974C237.162 345.081 237.315 344.925 237.315 344.733V343.294C237.315 343.103 237.162 342.947 236.974 342.947Z" fill="#3F3D56"/>
<path d="M243.963 342.947H241.151C240.963 342.947 240.81 343.103 240.81 343.294V344.733C240.81 344.925 240.963 345.081 241.151 345.081H243.963C244.152 345.081 244.305 344.925 244.305 344.733V343.294C244.305 343.103 244.152 342.947 243.963 342.947Z" fill="#3F3D56"/>
<path d="M250.953 342.947H248.141C247.952 342.947 247.799 343.103 247.799 343.294V344.733C247.799 344.925 247.952 345.081 248.141 345.081H250.953C251.141 345.081 251.294 344.925 251.294 344.733V343.294C251.294 343.103 251.141 342.947 250.953 342.947Z" fill="#3F3D56"/>
<path d="M257.943 342.947H255.13C254.942 342.947 254.789 343.103 254.789 343.294V344.733C254.789 344.925 254.942 345.081 255.13 345.081H257.943C258.131 345.081 258.284 344.925 258.284 344.733V343.294C258.284 343.103 258.131 342.947 257.943 342.947Z" fill="#3F3D56"/>
<path d="M211.112 347.214H183.836C183.648 347.214 183.495 347.369 183.495 347.561V349C183.495 349.192 183.648 349.347 183.836 349.347H211.112C211.301 349.347 211.453 349.192 211.453 349V347.561C211.453 347.369 211.301 347.214 211.112 347.214Z" fill="#3F3D56"/>
<path d="M288.495 175.405H110.034C109.848 175.401 109.672 175.323 109.542 175.188C109.412 175.053 109.34 174.872 109.34 174.683C109.34 174.494 109.412 174.313 109.542 174.178C109.672 174.043 109.848 173.965 110.034 173.961H288.495C288.681 173.965 288.857 174.043 288.987 174.178C289.117 174.313 289.189 174.494 289.189 174.683C289.189 174.872 289.117 175.053 288.987 175.188C288.857 175.323 288.681 175.401 288.495 175.405V175.405Z" fill="#3F3D56"/>
<path d="M122.182 170.275C124.479 170.275 126.341 168.338 126.341 165.949C126.341 163.56 124.479 161.624 122.182 161.624C119.885 161.624 118.023 163.56 118.023 165.949C118.023 168.338 119.885 170.275 122.182 170.275Z" fill="#3F3D56"/>
<path d="M136.55 170.275C138.847 170.275 140.709 168.338 140.709 165.949C140.709 163.56 138.847 161.624 136.55 161.624C134.253 161.624 132.391 163.56 132.391 165.949C132.391 168.338 134.253 170.275 136.55 170.275Z" fill="#3F3D56"/>
<path d="M150.918 170.275C153.215 170.275 155.077 168.338 155.077 165.949C155.077 163.56 153.215 161.624 150.918 161.624C148.621 161.624 146.759 163.56 146.759 165.949C146.759 168.338 148.621 170.275 150.918 170.275Z" fill="#3F3D56"/>
<path d="M279.843 162.693H269.639C269.437 162.698 269.245 162.783 269.104 162.93C268.963 163.077 268.884 163.274 268.884 163.479C268.884 163.684 268.963 163.882 269.104 164.028C269.245 164.175 269.437 164.26 269.639 164.265H279.843C280.046 164.262 280.24 164.178 280.383 164.031C280.525 163.884 280.605 163.686 280.605 163.479C280.605 163.273 280.525 163.074 280.383 162.927C280.24 162.78 280.046 162.696 279.843 162.693Z" fill="#3F3D56"/>
<path d="M279.843 165.644H269.639C269.437 165.649 269.245 165.734 269.103 165.881C268.962 166.027 268.883 166.225 268.883 166.43C268.883 166.636 268.962 166.833 269.103 166.98C269.245 167.127 269.437 167.211 269.639 167.216H279.843C280.047 167.213 280.241 167.129 280.384 166.982C280.526 166.835 280.607 166.637 280.607 166.43C280.607 166.223 280.526 166.025 280.384 165.878C280.241 165.731 280.047 165.647 279.843 165.644V165.644Z" fill="#3F3D56"/>
<path d="M279.843 168.595H269.639C269.437 168.6 269.245 168.685 269.104 168.832C268.963 168.979 268.884 169.176 268.884 169.381C268.884 169.586 268.963 169.783 269.104 169.93C269.245 170.077 269.437 170.162 269.639 170.167H279.843C280.046 170.164 280.24 170.08 280.383 169.933C280.525 169.786 280.605 169.588 280.605 169.381C280.605 169.175 280.525 168.976 280.383 168.829C280.24 168.682 280.046 168.598 279.843 168.595V168.595Z" fill="#3F3D56"/>
<path d="M125.422 192.184H121.755C120.643 192.184 119.742 193.101 119.742 194.232C119.742 195.363 120.643 196.28 121.755 196.28H125.422C126.534 196.28 127.435 195.363 127.435 194.232C127.435 193.101 126.534 192.184 125.422 192.184Z" fill="#E6E6E6"/>
<path d="M167.36 192.184H163.693C162.581 192.184 161.68 193.101 161.68 194.232C161.68 195.363 162.581 196.28 163.693 196.28H167.36C168.471 196.28 169.373 195.363 169.373 194.232C169.373 193.101 168.471 192.184 167.36 192.184Z" fill="#E6E6E6"/>
<path d="M179.242 192.184H175.575C174.463 192.184 173.562 193.101 173.562 194.232C173.562 195.363 174.463 196.28 175.575 196.28H179.242C180.354 196.28 181.255 195.363 181.255 194.232C181.255 193.101 180.354 192.184 179.242 192.184Z" fill="#E6E6E6"/>
<path d="M155.952 191.843H133.162C132.05 191.843 131.149 192.759 131.149 193.89C131.149 195.021 132.05 195.938 133.162 195.938H155.952C157.064 195.938 157.965 195.021 157.965 193.89C157.965 192.759 157.064 191.843 155.952 191.843Z" fill="#E6E6E6"/>
<path d="M211.869 191.843H189.079C187.967 191.843 187.066 192.759 187.066 193.89C187.066 195.021 187.967 195.938 189.079 195.938H211.869C212.981 195.938 213.882 195.021 213.882 193.89C213.882 192.759 212.981 191.843 211.869 191.843Z" fill="#E6E6E6"/>
<path d="M136.605 201.428H132.938C131.827 201.428 130.925 202.345 130.925 203.476C130.925 204.607 131.827 205.524 132.938 205.524H136.605C137.717 205.524 138.618 204.607 138.618 203.476C138.618 202.345 137.717 201.428 136.605 201.428Z" fill="#E6E6E6"/>
<path d="M178.543 201.428H174.876C173.764 201.428 172.863 202.345 172.863 203.476C172.863 204.607 173.764 205.524 174.876 205.524H178.543C179.655 205.524 180.556 204.607 180.556 203.476C180.556 202.345 179.655 201.428 178.543 201.428Z" fill="#E6E6E6"/>
<path d="M190.425 201.428H186.758C185.647 201.428 184.746 202.345 184.746 203.476C184.746 204.607 185.647 205.524 186.758 205.524H190.425C191.537 205.524 192.438 204.607 192.438 203.476C192.438 202.345 191.537 201.428 190.425 201.428Z" fill="#E6E6E6"/>
<path d="M167.136 201.086H144.346C143.234 201.086 142.333 202.003 142.333 203.134C142.333 204.265 143.234 205.182 144.346 205.182H167.136C168.248 205.182 169.149 204.265 169.149 203.134C169.149 202.003 168.248 201.086 167.136 201.086Z" fill="#E6E6E6"/>
<path d="M223.053 201.086H200.263C199.151 201.086 198.25 202.003 198.25 203.134C198.25 204.265 199.151 205.182 200.263 205.182H223.053C224.164 205.182 225.066 204.265 225.066 203.134C225.066 202.003 224.164 201.086 223.053 201.086Z" fill="#E6E6E6"/>
<path d="M147.789 210.672H144.122C143.01 210.672 142.109 211.589 142.109 212.72C142.109 213.851 143.01 214.768 144.122 214.768H147.789C148.9 214.768 149.802 213.851 149.802 212.72C149.802 211.589 148.9 210.672 147.789 210.672Z" fill="#E6E6E6"/>
<path d="M189.726 210.672H186.06C184.948 210.672 184.047 211.589 184.047 212.72C184.047 213.851 184.948 214.768 186.06 214.768H189.726C190.838 214.768 191.739 213.851 191.739 212.72C191.739 211.589 190.838 210.672 189.726 210.672Z" fill="#E6E6E6"/>
<path d="M201.609 210.672H197.942C196.83 210.672 195.929 211.589 195.929 212.72C195.929 213.851 196.83 214.768 197.942 214.768H201.609C202.721 214.768 203.622 213.851 203.622 212.72C203.622 211.589 202.721 210.672 201.609 210.672Z" fill="#E6E6E6"/>
<path d="M178.319 210.33H155.529C154.417 210.33 153.516 211.247 153.516 212.378C153.516 213.509 154.417 214.426 155.529 214.426H178.319C179.431 214.426 180.332 213.509 180.332 212.378C180.332 211.247 179.431 210.33 178.319 210.33Z" fill="#E6E6E6"/>
<path d="M234.236 210.33H211.446C210.334 210.33 209.433 211.247 209.433 212.378C209.433 213.509 210.334 214.426 211.446 214.426H234.236C235.348 214.426 236.249 213.509 236.249 212.378C236.249 211.247 235.348 210.33 234.236 210.33Z" fill="#E6E6E6"/>
<path d="M158.972 219.916H155.305C154.193 219.916 153.292 220.833 153.292 221.964C153.292 223.095 154.193 224.012 155.305 224.012H158.972C160.084 224.012 160.985 223.095 160.985 221.964C160.985 220.833 160.084 219.916 158.972 219.916Z" fill="#E6E6E6"/>
<path d="M200.91 219.916H197.243C196.131 219.916 195.23 220.833 195.23 221.964C195.23 223.095 196.131 224.012 197.243 224.012H200.91C202.022 224.012 202.923 223.095 202.923 221.964C202.923 220.833 202.022 219.916 200.91 219.916Z" fill="#E6E6E6"/>
<path d="M212.792 219.916H209.125C208.014 219.916 207.112 220.833 207.112 221.964C207.112 223.095 208.014 224.012 209.125 224.012H212.792C213.904 224.012 214.805 223.095 214.805 221.964C214.805 220.833 213.904 219.916 212.792 219.916Z" fill="#E6E6E6"/>
<path d="M189.503 219.574H166.712C165.601 219.574 164.699 220.491 164.699 221.622C164.699 222.753 165.601 223.67 166.712 223.67H189.503C190.614 223.67 191.516 222.753 191.516 221.622C191.516 220.491 190.614 219.574 189.503 219.574Z" fill="#E6E6E6"/>
<path d="M167.36 256.674H163.693C162.581 256.674 161.68 257.59 161.68 258.721C161.68 259.852 162.581 260.769 163.693 260.769H167.36C168.471 260.769 169.373 259.852 169.373 258.721C169.373 257.59 168.471 256.674 167.36 256.674Z" fill="#E6E6E6"/>
<path d="M179.242 256.674H175.575C174.463 256.674 173.562 257.59 173.562 258.721C173.562 259.852 174.463 260.769 175.575 260.769H179.242C180.354 260.769 181.255 259.852 181.255 258.721C181.255 257.59 180.354 256.674 179.242 256.674Z" fill="#E6E6E6"/>
<path d="M211.869 257.015H189.079C187.967 257.015 187.066 257.932 187.066 259.063C187.066 260.194 187.967 261.111 189.079 261.111H211.869C212.981 261.111 213.882 260.194 213.882 259.063C213.882 257.932 212.981 257.015 211.869 257.015Z" fill="#E6E6E6"/>
<path d="M125.422 256.674H121.755C120.643 256.674 119.742 257.59 119.742 258.721C119.742 259.852 120.643 260.769 121.755 260.769H125.422C126.534 260.769 127.435 259.852 127.435 258.721C127.435 257.59 126.534 256.674 125.422 256.674Z" fill="#E6E6E6"/>
<path d="M155.952 257.015H133.162C132.05 257.015 131.149 257.932 131.149 259.063C131.149 260.194 132.05 261.111 133.162 261.111H155.952C157.064 261.111 157.965 260.194 157.965 259.063C157.965 257.932 157.064 257.015 155.952 257.015Z" fill="#E6E6E6"/>
<path d="M136.605 247.43H132.938C131.827 247.43 130.925 248.347 130.925 249.478C130.925 250.609 131.827 251.525 132.938 251.525H136.605C137.717 251.525 138.618 250.609 138.618 249.478C138.618 248.347 137.717 247.43 136.605 247.43Z" fill="#E6E6E6"/>
<path d="M178.543 247.43H174.876C173.764 247.43 172.863 248.347 172.863 249.478C172.863 250.609 173.764 251.525 174.876 251.525H178.543C179.655 251.525 180.556 250.609 180.556 249.478C180.556 248.347 179.655 247.43 178.543 247.43Z" fill="#E6E6E6"/>
<path d="M190.425 247.43H186.758C185.647 247.43 184.746 248.347 184.746 249.478C184.746 250.609 185.647 251.525 186.758 251.525H190.425C191.537 251.525 192.438 250.609 192.438 249.478C192.438 248.347 191.537 247.43 190.425 247.43Z" fill="#E6E6E6"/>
<path d="M167.136 247.771H144.346C143.234 247.771 142.333 248.688 142.333 249.819C142.333 250.95 143.234 251.867 144.346 251.867H167.136C168.248 251.867 169.149 250.95 169.149 249.819C169.149 248.688 168.248 247.771 167.136 247.771Z" fill="#E6E6E6"/>
<path d="M147.789 238.186H144.122C143.01 238.186 142.109 239.103 142.109 240.234C142.109 241.365 143.01 242.281 144.122 242.281H147.789C148.9 242.281 149.802 241.365 149.802 240.234C149.802 239.103 148.9 238.186 147.789 238.186Z" fill="#E6E6E6"/>
<path d="M189.726 238.186H186.06C184.948 238.186 184.047 239.103 184.047 240.234C184.047 241.365 184.948 242.281 186.06 242.281H189.726C190.838 242.281 191.739 241.365 191.739 240.234C191.739 239.103 190.838 238.186 189.726 238.186Z" fill="#E6E6E6"/>
<path d="M201.609 238.186H197.942C196.83 238.186 195.929 239.103 195.929 240.234C195.929 241.365 196.83 242.281 197.942 242.281H201.609C202.721 242.281 203.622 241.365 203.622 240.234C203.622 239.103 202.721 238.186 201.609 238.186Z" fill="#E6E6E6"/>
<path d="M178.319 238.527H155.529C154.417 238.527 153.516 239.444 153.516 240.575C153.516 241.706 154.417 242.623 155.529 242.623H178.319C179.431 242.623 180.332 241.706 180.332 240.575C180.332 239.444 179.431 238.527 178.319 238.527Z" fill="#E6E6E6"/>
<path d="M158.972 228.942H155.305C154.193 228.942 153.292 229.859 153.292 230.99C153.292 232.121 154.193 233.038 155.305 233.038H158.972C160.084 233.038 160.985 232.121 160.985 230.99C160.985 229.859 160.084 228.942 158.972 228.942Z" fill="#E6E6E6"/>
<path d="M200.91 228.942H197.243C196.131 228.942 195.23 229.859 195.23 230.99C195.23 232.121 196.131 233.038 197.243 233.038H200.91C202.022 233.038 202.923 232.121 202.923 230.99C202.923 229.859 202.022 228.942 200.91 228.942Z" fill="#E6E6E6"/>
<path d="M212.792 228.942H209.125C208.014 228.942 207.112 229.859 207.112 230.99C207.112 232.121 208.014 233.038 209.125 233.038H212.792C213.904 233.038 214.805 232.121 214.805 230.99C214.805 229.859 213.904 228.942 212.792 228.942Z" fill="#E6E6E6"/>
<path d="M189.503 229.283H166.712C165.601 229.283 164.699 230.2 164.699 231.331C164.699 232.462 165.601 233.379 166.712 233.379H189.503C190.614 233.379 191.516 232.462 191.516 231.331C191.516 230.2 190.614 229.283 189.503 229.283Z" fill="#E6E6E6"/>
<path d="M290.635 390.215C290.209 390.436 289.776 390.656 289.349 390.87C278.306 396.487 269.471 399.68 257.386 403.178C256.365 391.588 255.38 371.215 254.422 358.587C254.171 355.309 253.919 352.557 253.674 350.616C253.613 349.584 253.405 348.566 253.059 347.594L253.101 350.616L253.206 358.587L253.814 404.174C238.781 408.22 223.339 410.485 207.794 410.922C206.984 410.943 206.187 410.957 205.418 410.972C205.145 410.979 204.88 410.986 204.614 410.986C203.74 410.993 202.874 411 202 411C185.619 411.012 169.298 408.999 153.394 405.006C153.737 393.536 154.079 373.391 154.408 358.587C154.478 355.693 154.541 352.998 154.61 350.616C154.743 345.524 154.883 341.855 155.016 340.625C154.898 340.843 154.807 341.075 154.743 341.315C154.096 344.381 153.654 347.489 153.422 350.616C153.178 352.998 152.933 355.693 152.688 358.587C151.388 373.967 150.032 394.88 148.634 403.747C140.314 401.436 132.149 398.579 124.192 395.193C119.998 393.415 115.879 391.498 111.834 389.44C112.603 384.321 113.407 378.582 114.231 372.63C114.874 368.016 115.538 363.273 116.216 358.587C117.265 351.348 118.341 344.252 119.432 338.001C121.025 328.871 122.661 321.533 124.282 318.162C125.82 314.963 127.358 311.805 128.847 308.783C129.364 307.724 129.881 306.679 130.384 305.662C130.503 305.42 130.622 305.185 130.741 304.951C131.81 302.81 132.845 300.762 133.83 298.843C134.676 297.2 135.48 295.65 136.242 294.221C138.087 290.751 139.653 287.984 140.813 286.235C145.664 278.75 152.885 273.177 161.278 270.442L161.488 270.385L161.635 270.449L175.929 265.984L178.019 265.33L179.424 264.889L184.372 261.056L187.063 258.973L189.586 257.017L194.521 253.199L225.073 255.112L231.021 269.681L244.343 274.638L244.574 274.531L244.776 274.446L244.986 274.502C253.378 277.24 260.599 282.812 265.452 290.295C266.109 291.298 266.906 292.621 267.807 294.221C268.576 295.579 269.415 297.129 270.324 298.843C271.617 301.282 273.029 304.033 274.524 307.013C274.853 307.667 275.188 308.335 275.524 309.011C276.146 310.262 276.777 311.54 277.418 312.843C278.907 315.866 280.444 319.023 281.982 322.23C283.317 325.01 284.666 330.727 285.994 338.001C287.092 344.045 288.182 351.17 289.237 358.587C290.621 368.201 289.147 379.713 290.398 388.558C290.475 389.12 290.558 389.668 290.635 390.215Z" fill="#DF7DE1" fill-opacity="0.99"/>
<path d="M202.43 241.569C222.054 241.569 237.963 225.385 237.963 205.421C237.963 185.456 222.054 169.272 202.43 169.272C182.806 169.272 166.897 185.456 166.897 205.421C166.897 225.385 182.806 241.569 202.43 241.569Z" fill="#EED991"/>
<path d="M261.027 157.517C260.325 155.849 259.39 154.292 258.252 152.895C252.856 146.189 243.043 143.238 232.971 151.174C231.032 150.733 229.011 150.852 227.135 151.515C226.249 151.842 225.419 152.307 224.674 152.895C223.149 154.105 221.959 155.698 221.221 157.517C220.827 158.478 220.568 159.49 220.453 160.525C217.963 159.209 215.328 158.199 212.603 157.517C205.918 155.825 198.928 155.825 192.242 157.517C190.1 158.068 188.037 158.9 186.106 159.991C182.834 161.911 180.954 164.336 180.619 167.031C175.901 167.301 170.994 169.825 167.338 173.964C166.926 174.426 166.528 174.91 166.157 175.407C163.083 179.5 161.431 184.514 161.46 189.664V190.567H162.348C164.78 190.565 167.189 191.043 169.442 191.975C170.902 192.572 172.285 193.348 173.559 194.286C174.393 194.888 175.18 195.554 175.915 196.277C177.617 197.954 179.06 199.884 180.192 202.002C183.096 207.352 184.103 213.556 183.044 219.572C182.801 220.965 182.446 222.335 181.982 223.668C181.321 225.57 180.451 227.39 179.389 229.093C179.347 229.157 179.312 229.221 179.27 229.285C178.801 230.046 178.354 230.821 177.935 231.603C177.62 232.187 177.327 232.784 177.054 233.381C176.257 235.044 175.584 236.764 175.041 238.529C174.068 241.651 173.495 244.887 173.336 248.157C173.287 249.025 173.273 249.892 173.301 250.76C173.342 252.996 173.583 255.224 174.021 257.415C174.083 257.714 174.146 258.006 174.209 258.304L174.719 260.573L175.929 265.984L176.767 269.71L177.543 273.166L178.69 271.495C179.081 270.926 180.067 269.177 181.388 266.702C182.261 265.088 183.275 263.161 184.372 261.056C185.903 258.105 187.58 254.813 189.223 251.528C189.887 250.198 190.544 248.875 191.18 247.581C192.382 245.128 193.515 242.76 194.486 240.655C195.381 238.714 196.143 236.993 196.709 235.614C196.884 236.517 197.03 237.434 197.142 238.359C197.268 239.297 197.359 240.25 197.408 241.203C197.422 241.345 197.429 241.495 197.436 241.637L197.464 242.22L197.471 242.391L198.212 242.49C202.485 242.956 206.793 242.989 211.073 242.59H211.08C216.749 242.155 222.311 240.784 227.547 238.529C230.521 237.217 233.297 235.484 235.795 233.381C236.962 232.398 238.051 231.324 239.052 230.167C239.304 229.876 239.548 229.584 239.786 229.285C241.169 227.556 242.353 225.671 243.316 223.668C243.96 222.346 244.507 220.977 244.951 219.572C247.635 211.302 247.481 200.985 244.49 188.726C245.298 188.568 246.072 188.264 246.775 187.83C248.97 186.486 250.494 183.82 250.969 180.563L251.724 180.769C254.4 179.501 256.784 177.674 258.721 175.407C259.104 174.946 259.464 174.464 259.797 173.964C263.215 168.844 263.243 162.701 261.027 157.517Z" fill="#2F2E41"/>
<path opacity="0.2" d="M144.21 337.97L150.149 314.652L155.393 334.773L144.21 337.97Z" fill="black"/>
<path d="M302.252 322.777C300.127 352.557 302.329 365.669 290.6 390.222C279.929 395.536 268.814 399.872 257.386 403.178C256.197 403.52 255.007 403.851 253.814 404.174C238.781 408.22 223.339 410.485 207.794 410.922C206.984 410.943 206.187 410.957 205.418 410.972C205.145 410.979 204.88 410.986 204.614 410.986C203.74 410.993 202.874 411 202 411C185.619 411.012 169.298 408.999 153.394 405.006C151.801 404.607 150.214 404.188 148.634 403.747C140.314 401.436 132.149 398.579 124.192 395.193C119.998 393.415 115.879 391.498 111.834 389.44C110.918 388.971 110.003 388.502 109.101 388.018C104.467 379.727 101.832 369.644 101.776 357.527C104.984 336.65 295.165 304.773 302.252 322.777Z" fill="#E1F312"/>
<path opacity="0.2" d="M302.247 327.877C302.355 326.034 302.476 324.129 302.618 322.146C295.531 304.142 105.35 336.019 102.142 356.896C102.151 358.81 102.231 360.668 102.366 362.481C110.136 341.876 290.81 311.578 302.247 327.877Z" fill="black"/>
<path d="M113.998 243.295C114.044 242.65 113.954 242.003 113.734 241.396C113.514 240.79 113.168 240.239 112.721 239.779C112.274 239.32 111.735 238.964 111.141 238.734C110.547 238.505 109.912 238.407 109.278 238.448C109.041 238.457 108.806 238.487 108.575 238.538L80.783 244.925C80.1619 245.078 79.5793 245.362 79.0727 245.758C78.566 246.154 78.1465 246.654 77.8412 247.225C77.4337 247.241 77.0289 247.301 76.6339 247.404C75.769 247.603 74.9512 247.974 74.2272 248.495C73.5032 249.016 72.8871 249.677 72.4142 250.44C71.9412 251.203 71.6207 252.054 71.4708 252.943C71.321 253.832 71.3447 254.743 71.5408 255.622C71.7368 256.502 72.1013 257.334 72.6134 258.071C73.1254 258.807 73.7751 259.434 74.5253 259.915C76.0403 260.887 77.8727 261.207 79.6194 260.804C80.6136 260.569 81.5437 260.111 82.3415 259.464L91.7593 286.442C92.2298 287.288 92.9565 287.956 93.831 288.346C94.7055 288.737 95.6807 288.829 96.6108 288.609L114.678 284.455C115.601 284.235 116.432 283.723 117.051 282.993C117.67 282.262 118.046 281.351 118.125 280.39L113.998 243.295ZM79.2023 258.883C77.9549 259.169 76.6467 258.941 75.5647 258.247C74.4828 257.554 73.7152 256.452 73.4304 255.184C73.1457 253.916 73.3669 252.584 74.0456 251.482C74.7243 250.379 75.805 249.595 77.0509 249.302C77.1387 249.28 77.2266 249.302 77.3144 249.28C77.3077 250.094 77.5122 250.895 77.9072 251.603L81.3536 257.722C80.7537 258.301 80.0099 258.702 79.2023 258.883Z" fill="#2F2E41"/>
<path d="M109.278 238.448C109.541 242.022 103.526 246.131 95.4694 247.761C88.0712 249.302 81.4415 248.23 79.5754 245.416C79.9505 245.19 80.3579 245.024 80.783 244.925L108.575 238.538C108.806 238.487 109.041 238.457 109.278 238.448V238.448Z" fill="#3F3D56"/>
<path d="M90.0566 329.159L105.667 321.219L92.6583 285.487L89.2299 267.467C88.7845 265.126 87.743 262.945 86.2093 261.141C84.6757 259.338 82.7037 257.976 80.4904 257.191C78.2771 256.405 75.9 256.225 73.5967 256.667C71.2934 257.11 69.1446 258.159 67.3649 259.711V259.711C64.7276 262.011 63.0717 265.263 62.7467 268.781C62.4216 272.299 63.4528 275.808 65.6227 278.567L78.3489 294.751L90.0566 329.159Z" fill="#F4DAB2" fill-opacity="0.99"/>
<path d="M105.667 314.602L84.8531 325.189L100.649 375.539C101.783 379.155 103.816 382.411 106.552 384.992C109.287 387.573 112.631 389.391 116.26 390.27V390.27C120.735 391.354 125.433 390.96 129.673 389.145C133.913 387.33 137.475 384.188 139.842 380.175L181.727 307.138C184.695 302.105 185.611 296.091 184.28 290.38C182.948 284.67 179.474 279.715 174.6 276.575V276.575C171.979 274.886 169.038 273.777 165.967 273.321C162.897 272.865 159.767 273.072 156.78 273.929C153.794 274.785 151.018 276.271 148.633 278.291C146.249 280.311 144.309 282.819 142.94 285.652L117.375 341.07L105.667 314.602Z" fill="#DC80E4"/>
<path d="M99.2294 269.099C99.1907 269.099 99.1523 269.093 99.1157 269.08L94.5715 267.488C94.5166 267.469 94.4672 267.436 94.4279 267.393C94.3885 267.35 94.3605 267.297 94.3462 267.24C94.332 267.183 94.3319 267.123 94.3462 267.065C94.3604 267.008 94.3885 266.955 94.4278 266.912L97.8076 263.168C97.8385 263.134 97.8759 263.106 97.9175 263.086C97.9592 263.066 98.0043 263.055 98.0502 263.053C98.0962 263.05 98.1421 263.058 98.1853 263.074C98.2286 263.09 98.2683 263.114 98.3022 263.146C98.336 263.177 98.3634 263.216 98.3828 263.258C98.4022 263.3 98.4131 263.346 98.415 263.393C98.4168 263.44 98.4096 263.487 98.3937 263.53C98.3778 263.574 98.3535 263.615 98.3223 263.649L95.3035 266.993L99.343 268.408C99.4212 268.435 99.4874 268.49 99.5297 268.562C99.572 268.634 99.5877 268.72 99.5741 268.802C99.5604 268.885 99.5183 268.961 99.4552 269.015C99.3921 269.07 99.3121 269.099 99.2294 269.099V269.099Z" fill="#10FF70"/>
<path d="M105.458 267.802C105.389 267.802 105.321 267.781 105.263 267.741C105.205 267.702 105.16 267.646 105.134 267.58C105.108 267.514 105.102 267.442 105.116 267.373C105.131 267.304 105.165 267.24 105.215 267.191L108.287 264.17L104.161 262.44C104.118 262.422 104.08 262.396 104.047 262.363C104.014 262.33 103.989 262.291 103.971 262.248C103.953 262.205 103.944 262.159 103.944 262.112C103.944 262.065 103.953 262.019 103.97 261.976C103.988 261.933 104.013 261.893 104.046 261.86C104.078 261.827 104.117 261.801 104.159 261.783C104.202 261.765 104.247 261.756 104.293 261.756C104.339 261.756 104.384 261.765 104.427 261.783L109.047 263.72C109.1 263.742 109.148 263.778 109.184 263.824C109.221 263.869 109.246 263.924 109.257 263.982C109.268 264.04 109.264 264.099 109.247 264.156C109.229 264.212 109.198 264.263 109.156 264.304L105.701 267.702C105.636 267.766 105.549 267.802 105.458 267.802V267.802Z" fill="#1DEE32"/>
<path d="M100.183 271.274C100.148 271.274 100.114 271.269 100.081 271.258C100.037 271.245 99.9959 271.222 99.9605 271.192C99.9251 271.163 99.8958 271.126 99.8743 271.085C99.8528 271.044 99.8395 270.998 99.8352 270.952C99.8309 270.905 99.8356 270.858 99.8492 270.814L103.075 260.148C103.102 260.058 103.164 259.983 103.246 259.939C103.328 259.895 103.423 259.886 103.512 259.914C103.6 259.942 103.674 260.004 103.717 260.087C103.761 260.17 103.77 260.267 103.743 260.357L100.517 271.024C100.495 271.096 100.451 271.16 100.391 271.205C100.331 271.25 100.258 271.274 100.183 271.274V271.274Z" fill="#34CE43"/>
</g>
<defs>
<linearGradient id="paint0_linear_1_3" x1="202" y1="1.52588e-05" x2="202" y2="411" gradientUnits="userSpaceOnUse">
<stop stop-color="#26A8A8"/>
<stop offset="1" stop-color="#F2F2F2" stop-opacity="0"/>
</linearGradient>
<clipPath id="clip0_1_3">
<rect width="404" height="411" fill="white"/>
</clipPath>
</defs>
</svg>
